<svg width="19" height="20" viewBox="0 0 19 20" fill="none" xmlns="http://www.w3.org/2000/svg">
<path d="M0.828369 3.93732H10.3854C10.5635 4.59222 10.9522 5.17032 11.4914 5.58247C12.0306 5.99461 12.6905 6.21791 13.3691 6.21791C14.0478 6.21791 14.7077 5.99461 15.2469 5.58247C15.7861 5.17032 16.1747 4.59222 16.3529 3.93732H18.1716C18.2804 3.93732 18.3881 3.91589 18.4886 3.87427C18.5891 3.83264 18.6805 3.77162 18.7574 3.6947C18.8343 3.61778 18.8953 3.52646 18.9369 3.42596C18.9786 3.32545 19 3.21774 19 3.10895C19 3.00017 18.9786 2.89245 18.9369 2.79195C18.8953 2.69145 18.8343 2.60013 18.7574 2.52321C18.6805 2.44629 18.5891 2.38527 18.4886 2.34364C18.3881 2.30201 18.2804 2.28058 18.1716 2.28058H16.346C16.1679 1.62569 15.7793 1.04758 15.24 0.635438C14.7008 0.223292 14.041 0 13.3623 0C12.6836 0 12.0238 0.223292 11.4846 0.635438C10.9453 1.04758 10.5567 1.62569 10.3786 2.28058H0.828369C0.719586 2.28058 0.611868 2.30201 0.511366 2.34364C0.410864 2.38527 0.319545 2.44629 0.242624 2.52321C0.165703 2.60013 0.104685 2.69145 0.0630559 2.79195C0.0214265 2.89245 0 3.00017 0 3.10895C0 3.21774 0.0214265 3.32545 0.0630559 3.42596C0.104685 3.52646 0.165703 3.61778 0.242624 3.6947C0.319545 3.77162 0.410864 3.83264 0.511366 3.87427C0.611868 3.91589 0.719586 3.93732 0.828369 3.93732ZM13.3794 1.65759C13.6663 1.6594 13.9461 1.74617 14.1837 1.90694C14.4213 2.06771 14.6059 2.29528 14.7142 2.5609C14.8225 2.82652 14.8497 3.11828 14.7923 3.39933C14.7349 3.68039 14.5955 3.93813 14.3917 4.14001C14.1879 4.34189 13.9289 4.47885 13.6473 4.5336C13.3657 4.58835 13.0742 4.55843 12.8096 4.44762C12.545 4.3368 12.3192 4.15007 12.1607 3.911C12.0022 3.67193 11.918 3.39124 11.9189 3.10439C11.9198 2.91349 11.9583 2.72464 12.0322 2.54862C12.1061 2.3726 12.2139 2.21286 12.3495 2.07851C12.4851 1.94416 12.6459 1.83784 12.8226 1.76562C12.9993 1.6934 13.1885 1.65669 13.3794 1.65759Z" fill="white"/>
<path d="M18.1716 9.12217H8.6123C8.43498 8.46685 8.04678 7.88817 7.50768 7.47556C6.96858 7.06294 6.3086 6.83936 5.62971 6.83936C4.95083 6.83936 4.29085 7.06294 3.75175 7.47556C3.21265 7.88817 2.82445 8.46685 2.64713 9.12217H0.828369C0.608672 9.12217 0.397973 9.20944 0.242624 9.36479C0.0872745 9.52014 0 9.73084 0 9.95054C0 10.1702 0.0872745 10.3809 0.242624 10.5363C0.397973 10.6916 0.608672 10.7789 0.828369 10.7789H2.65398C2.83129 11.4342 3.21949 12.0129 3.75859 12.4255C4.29769 12.8381 4.95768 13.0617 5.63656 13.0617C6.31544 13.0617 6.97543 12.8381 7.51453 12.4255C8.05363 12.0129 8.44183 11.4342 8.61915 10.7789H18.1716C18.3913 10.7789 18.602 10.6916 18.7574 10.5363C18.9127 10.3809 19 10.1702 19 9.95054C19 9.73084 18.9127 9.52014 18.7574 9.36479C18.602 9.20944 18.3913 9.12217 18.1716 9.12217ZM5.62059 11.4019C5.33393 11.4001 5.05423 11.3134 4.81676 11.1529C4.57929 10.9923 4.39468 10.765 4.28623 10.4997C4.17778 10.2343 4.15034 9.94277 4.20737 9.66184C4.26439 9.3809 4.40334 9.12315 4.60667 8.92109C4.81001 8.71902 5.06863 8.5817 5.34991 8.52643C5.63119 8.47117 5.92254 8.50044 6.18721 8.61055C6.45188 8.72066 6.67802 8.90669 6.83709 9.14516C6.99617 9.38363 7.08107 9.66387 7.08107 9.95054C7.08077 10.1418 7.04273 10.3312 6.96911 10.5077C6.8955 10.6843 6.78777 10.8445 6.65209 10.9794C6.51641 11.1142 6.35545 11.2209 6.17845 11.2934C6.00144 11.3659 5.81186 11.4028 5.62059 11.4019Z" fill="white"/>
<path d="M18.1716 15.9634H16.346C16.1679 15.3085 15.7793 14.7304 15.24 14.3183C14.7008 13.9062 14.041 13.6829 13.3623 13.6829C12.6836 13.6829 12.0238 13.9062 11.4846 14.3183C10.9453 14.7304 10.5567 15.3085 10.3786 15.9634H0.828369C0.608672 15.9634 0.397973 16.0507 0.242624 16.2061C0.0872745 16.3614 0 16.5721 0 16.7918C0 17.0115 0.0872745 17.2222 0.242624 17.3776C0.397973 17.5329 0.608672 17.6202 0.828369 17.6202H10.3854C10.5635 18.2751 10.9522 18.8532 11.4914 19.2653C12.0306 19.6775 12.6905 19.9008 13.3691 19.9008C14.0478 19.9008 14.7077 19.6775 15.2469 19.2653C15.7861 18.8532 16.1747 18.2751 16.3529 17.6202H18.1716C18.3913 17.6202 18.602 17.5329 18.7574 17.3776C18.9127 17.2222 19 17.0115 19 16.7918C19 16.5721 18.9127 16.3614 18.7574 16.2061C18.602 16.0507 18.3913 15.9634 18.1716 15.9634ZM13.3794 18.2455C13.0919 18.2473 12.8103 18.1636 12.5704 18.0051C12.3305 17.8467 12.143 17.6205 12.0318 17.3553C11.9206 17.0902 11.8907 16.7979 11.9459 16.5157C12.001 16.2335 12.1388 15.9741 12.3416 15.7703C12.5444 15.5665 12.8032 15.4275 13.0852 15.371C13.3671 15.3146 13.6595 15.3431 13.9252 15.453C14.1908 15.5629 14.4179 15.7493 14.5775 15.9885C14.7371 16.2277 14.8221 16.5088 14.8216 16.7964C14.8193 17.1786 14.6667 17.5445 14.3969 17.8152C14.127 18.0859 13.7616 18.2396 13.3794 18.2432V18.2455Z" fill="white"/>
</svg>
