<svg width="12" height="13" viewBox="0 0 12 13" fill="none" xmlns="http://www.w3.org/2000/svg">
<path d="M6.56818 10.3182V9.70455C6.56818 9.26515 6.65909 8.86364 6.84091 8.5C7.02652 8.13258 7.29545 7.83902 7.64773 7.61932C8.00379 7.39583 8.43371 7.28409 8.9375 7.28409C9.45265 7.28409 9.88447 7.39394 10.233 7.61364C10.5814 7.83333 10.8447 8.12689 11.0227 8.49432C11.2045 8.86174 11.2955 9.26515 11.2955 9.70455V10.3182C11.2955 10.7576 11.2045 11.161 11.0227 11.5284C10.8409 11.892 10.5739 12.1856 10.2216 12.4091C9.87311 12.6288 9.44508 12.7386 8.9375 12.7386C8.42614 12.7386 7.99432 12.6288 7.64205 12.4091C7.28977 12.1856 7.02273 11.892 6.84091 11.5284C6.65909 11.161 6.56818 10.7576 6.56818 10.3182ZM7.89205 9.70455V10.3182C7.89205 10.6439 7.9697 10.9394 8.125 11.2045C8.2803 11.4697 8.55114 11.6023 8.9375 11.6023C9.32008 11.6023 9.58712 11.4697 9.73864 11.2045C9.89015 10.9394 9.96591 10.6439 9.96591 10.3182V9.70455C9.96591 9.37879 9.89205 9.08333 9.74432 8.81818C9.60038 8.55303 9.33144 8.42045 8.9375 8.42045C8.55871 8.42045 8.28977 8.55303 8.13068 8.81818C7.97159 9.08333 7.89205 9.37879 7.89205 9.70455ZM0.715909 3.65909V3.04545C0.715909 2.60606 0.806818 2.20265 0.988636 1.83523C1.17424 1.4678 1.44318 1.17424 1.79545 0.954545C2.15152 0.734848 2.58144 0.625 3.08523 0.625C3.60038 0.625 4.0322 0.734848 4.38068 0.954545C4.72917 1.17424 4.99242 1.4678 5.17045 1.83523C5.34848 2.20265 5.4375 2.60606 5.4375 3.04545V3.65909C5.4375 4.09848 5.34659 4.50189 5.16477 4.86932C4.98674 5.23295 4.72159 5.52652 4.36932 5.75C4.02083 5.9697 3.5928 6.07955 3.08523 6.07955C2.57008 6.07955 2.13636 5.9697 1.78409 5.75C1.43561 5.52652 1.17045 5.23295 0.988636 4.86932C0.806818 4.50189 0.715909 4.09848 0.715909 3.65909ZM2.04545 3.04545V3.65909C2.04545 3.98485 2.12121 4.2803 2.27273 4.54545C2.42803 4.81061 2.69886 4.94318 3.08523 4.94318C3.46402 4.94318 3.72917 4.81061 3.88068 4.54545C4.03598 4.2803 4.11364 3.98485 4.11364 3.65909V3.04545C4.11364 2.7197 4.03977 2.42424 3.89205 2.15909C3.74432 1.89394 3.47538 1.76136 3.08523 1.76136C2.70644 1.76136 2.4375 1.89394 2.27841 2.15909C2.12311 2.42424 2.04545 2.7197 2.04545 3.04545ZM1.25568 12.5L9.25568 0.863636H10.6136L2.61364 12.5H1.25568Z" fill="#5C86F7"/>
</svg>
