<svg width="18" height="12" viewBox="0 0 18 12" fill="none" xmlns="http://www.w3.org/2000/svg">
<path d="M16.5506 6.40519H0.411092C0.183621 6.40519 0 6.22157 0 5.9941C0 5.76663 0.183621 5.58301 0.411092 5.58301H16.5506C16.778 5.58301 16.9617 5.76663 16.9617 5.9941C16.9617 6.22157 16.778 6.40519 16.5506 6.40519Z" fill="#36C5FB"/>
<path d="M12.8396 11.0944C12.7437 11.0944 12.645 11.0615 12.5655 10.9902C12.3956 10.8395 12.3819 10.5791 12.5327 10.4092L16.4051 6.05987L12.5299 1.58719C12.3819 1.41453 12.4011 1.15691 12.571 1.00618C12.7437 0.858182 13.0013 0.874626 13.152 1.04728L17.2657 5.79129C17.4 5.9475 17.4 6.18045 17.263 6.33393L13.1493 10.9519C13.0671 11.0423 12.9547 11.0889 12.8423 11.0889L12.8396 11.0944Z" fill="#36C5FB"/>
</svg>
