<svg width="12" height="13" viewBox="0 0 12 13" fill="none" xmlns="http://www.w3.org/2000/svg">
<path d="M6.00001 0.5C4.81332 0.5 3.65328 0.851894 2.66659 1.51118C1.67989 2.17047 0.910853 3.10755 0.456726 4.20391C0.00259972 5.30026 -0.11622 6.50667 0.115291 7.67055C0.346803 8.83444 0.918248 9.90354 1.75736 10.7427C2.59648 11.5818 3.66558 12.1532 4.82947 12.3847C5.99336 12.6162 7.19976 12.4974 8.29612 12.0433C9.39248 11.5892 10.3295 10.8201 10.9888 9.83344C11.6481 8.84674 12 7.6867 12 6.50001C11.9954 4.91011 11.3618 3.38664 10.2376 2.26241C9.11338 1.13818 7.58991 0.504573 6.00001 0.5ZM6.00001 11.3C5.05066 11.3 4.12263 11.0185 3.33327 10.4911C2.54391 9.96364 1.92868 9.21398 1.56538 8.33689C1.20208 7.45981 1.10703 6.49469 1.29224 5.56357C1.47744 4.63246 1.9346 3.77718 2.60589 3.10589C3.27719 2.4346 4.13247 1.97744 5.06358 1.79223C5.99469 1.60702 6.95981 1.70208 7.8369 2.06538C8.71398 2.42868 9.46364 3.04391 9.99107 3.83327C10.5185 4.62263 10.8 5.55066 10.8 6.50001C10.7962 7.77186 10.2892 8.99051 9.38986 9.88985C8.49052 10.7892 7.27186 11.2961 6.00001 11.3Z" fill="#475467"/>
<path d="M6.5999 5.8999H5.3999V9.49991H6.5999V5.8999Z" fill="#475467"/>
<path d="M6.5999 3.5H5.3999V4.7H6.5999V3.5Z" fill="#475467"/>
</svg>
