<svg width="19" height="22" viewBox="0 0 19 22" fill="none" xmlns="http://www.w3.org/2000/svg">
<path d="M18.4722 16.8978L10.0278 21.8354C9.71111 22.0549 9.28889 22.0549 8.97222 21.8354L0.527778 16.8978C0.211111 16.6783 0 16.3491 0 15.9102V6.03491C0 5.59601 0.211111 5.26683 0.527778 5.04738L8.97222 0.109726C9.18333 0 9.28889 0 9.5 0C9.71111 0 9.81667 0 10.0278 0.109726L18.4722 5.04738C18.7889 5.26683 19 5.59601 19 6.03491V15.9102C19 16.3491 18.7889 16.6783 18.4722 16.8978ZM2.11111 15.2519L8.44444 18.9825V11.6309L2.11111 7.90025V15.2519ZM9.5 2.30424L3.16667 6.03491L9.5 9.76558L15.8333 6.03491L9.5 2.30424ZM16.8889 7.90025L10.5556 11.6309V18.9825L16.8889 15.2519V7.90025Z" fill="#36C5FB"/>
</svg>
