<svg width="21" height="16" viewBox="0 0 21 16" fill="none" xmlns="http://www.w3.org/2000/svg">
<path d="M20.7376 5.06235H0.262386C0.117388 5.06235 0 5.17413 0 5.31316V15.2492C0 15.3159 0.0276199 15.3798 0.0769382 15.4267C0.126256 15.4737 0.193331 15.5 0.262378 15.5H20.7376C20.8067 15.5 20.8737 15.4737 20.9231 15.4267C20.9724 15.3798 21 15.3159 21 15.2492V5.31316C21 5.24647 20.9724 5.18259 20.9231 5.13563C20.8737 5.08866 20.8067 5.06235 20.7376 5.06235ZM20.4743 14.9994H0.525757V5.563H20.4743V14.9994ZM2.52856e-05 4.02523C2.52856e-05 3.88714 0.117403 3.77442 0.262411 3.77442H14.4031C15.0551 3.77442 15.7012 3.65513 16.3048 3.42122L19.5875 2.14844V2.14938C19.6684 2.11838 19.7601 2.12777 19.8321 2.1738C19.9051 2.22077 19.9485 2.29873 19.9485 2.38233V4.21119V4.21025C19.9485 4.34927 19.8302 4.46106 19.6852 4.46106C19.5402 4.46106 19.4218 4.34928 19.4218 4.21025V2.75524L16.5022 3.88524C15.8345 4.14355 15.1193 4.27693 14.3983 4.27599H0.262636C0.117638 4.27599 2.52856e-05 4.16331 2.52856e-05 4.02523ZM2.52856e-05 2.39174C2.52856e-05 2.25366 0.117403 2.14187 0.262411 2.14187H11.4184C12.0714 2.14281 12.7175 2.02352 13.3221 1.78868L16.6028 0.518731C16.6837 0.486795 16.7774 0.496187 16.8494 0.543153C16.9224 0.590118 16.9658 0.668082 16.9658 0.751682V2.58054V2.5796C16.9658 2.71862 16.8474 2.83041 16.7024 2.83041C16.5574 2.83041 16.439 2.71863 16.439 2.5796V1.12178L13.5195 2.25365V2.25459C12.8517 2.51196 12.1366 2.64441 11.4155 2.64254H0.262563C0.117565 2.64254 2.52856e-05 2.53077 2.52856e-05 2.39174ZM10.2366 10.4577V11.5069C10.0512 11.4618 9.89534 11.3397 9.81348 11.1744C9.78586 11.1124 9.73358 11.0645 9.66848 11.0401C9.60338 11.0156 9.53038 11.0166 9.46627 11.0438C9.3341 11.0992 9.27294 11.2458 9.32917 11.3717C9.49784 11.7211 9.83813 11.9672 10.2366 12.0282V12.404C10.2366 12.5421 10.355 12.6548 10.5 12.6548C10.645 12.6548 10.7634 12.5421 10.7634 12.404V12.0311C11.3148 11.985 11.7389 11.5454 11.7389 11.0175C11.7389 10.4896 11.3148 10.0501 10.7634 10.004V8.9473C10.9508 8.99427 11.1076 9.11826 11.1915 9.28545C11.2151 9.3512 11.2654 9.40474 11.3315 9.43292C11.3976 9.46203 11.4726 9.46392 11.5397 9.43761C11.6067 9.41225 11.66 9.36059 11.6866 9.29578C11.7123 9.2319 11.7093 9.15958 11.6787 9.09758C11.5111 8.74251 11.1668 8.49267 10.7634 8.43349V8.06057C10.7634 7.92249 10.645 7.80977 10.5 7.80977C10.355 7.80977 10.2366 7.92249 10.2366 8.06057V8.43161C9.68526 8.4767 9.26111 8.91629 9.26111 9.44419C9.26111 9.97208 9.68525 10.4126 10.2366 10.4577ZM11.223 11.0184C11.1964 11.2589 11.0109 11.4562 10.7634 11.5069V10.5046V10.5056C11.0198 10.5591 11.2082 10.7686 11.223 11.0184ZM10.2366 8.94724V9.94951C9.94665 9.94951 9.71091 9.72501 9.71091 9.44792C9.71091 9.17177 9.94665 8.94724 10.2366 8.94724ZM10.2366 6.56514C10.2366 6.42706 10.355 6.31434 10.5 6.31434H17.3623C17.4323 6.31434 17.4994 6.34064 17.5487 6.38761C17.598 6.43457 17.6257 6.49845 17.6257 6.56514C17.6266 7.50916 18.4305 8.2747 19.4219 8.27564C19.4919 8.27564 19.559 8.30194 19.6083 8.34891C19.6576 8.39587 19.6852 8.45975 19.6852 8.52644V12.0329C19.6852 12.0996 19.6576 12.1635 19.6083 12.2104C19.559 12.2574 19.4919 12.2837 19.4219 12.2837C18.4315 12.2865 17.6286 13.0511 17.6257 13.9942C17.6257 14.0609 17.598 14.1248 17.5487 14.1717C17.4994 14.2187 17.4323 14.245 17.3623 14.245H13.1307C12.9847 14.245 12.8673 14.1332 12.8673 13.9942C12.8673 13.8561 12.9847 13.7443 13.1307 13.7443H17.1156C17.2389 12.7214 18.0852 11.9155 19.1594 11.7981V8.7641C18.0852 8.64669 17.2379 7.83886 17.1156 6.81594H10.5C10.355 6.81594 10.2366 6.70323 10.2366 6.56514ZM1.31486 12.0357V8.52927C1.31486 8.39025 1.43224 8.27846 1.57823 8.27846C2.56954 8.27752 3.37344 7.51198 3.37443 6.56796C3.37443 6.42894 3.49181 6.31715 3.6378 6.31715H7.86941C8.01539 6.31715 8.13278 6.42893 8.13278 6.56796C8.13278 6.70604 8.0154 6.81782 7.86941 6.81782H3.8845C3.76219 7.84168 2.91491 8.64856 1.84072 8.76692V11.7999C2.91488 11.9183 3.7612 12.7242 3.8845 13.7462H10.5001C10.6451 13.7462 10.7635 13.8589 10.7635 13.997C10.7635 14.1351 10.6451 14.2478 10.5001 14.2478H3.6378C3.49182 14.2478 3.37443 14.1351 3.37443 13.997C3.37147 13.053 2.56856 12.2893 1.57823 12.2865C1.43225 12.2865 1.31486 12.1738 1.31486 12.0357Z" fill="#C1892E"/>
</svg>
