<svg width="22" height="22" viewBox="0 0 22 22" fill="none" xmlns="http://www.w3.org/2000/svg">
<path d="M11 22C8.0618 22 5.29947 20.8558 3.2218 18.7782C1.14413 16.7006 0 13.9382 0 11C0 8.0618 1.14417 5.29947 3.2218 3.2218C5.29942 1.14413 8.0618 0 11 0C13.9382 0 16.7005 1.14417 18.7782 3.2218C20.8559 5.29942 22 8.0618 22 11C22 13.9382 20.8558 16.7005 18.7782 18.7782C16.7006 20.8559 13.9382 22 11 22ZM11 1.375C5.69276 1.375 1.375 5.69276 1.375 11C1.375 16.3072 5.69276 20.625 11 20.625C16.3072 20.625 20.625 16.3072 20.625 11C20.625 5.69276 16.3072 1.375 11 1.375Z" fill="white"/>
<path d="M11 15.8125C10.6203 15.8125 10.3125 15.5047 10.3125 15.125C10.3125 13.3897 10.9883 11.7582 12.2154 10.5311C12.9833 9.76314 13.4062 8.74212 13.4062 7.65604C13.4062 6.46718 12.4391 5.5 11.2502 5.5H11.0935C9.90468 5.5 8.9375 6.46718 8.9375 7.65604V7.90625C8.9375 8.28592 8.62967 8.59375 8.25 8.59375C7.87033 8.59375 7.5625 8.28592 7.5625 7.90625V7.65604C7.5625 5.709 9.1465 4.125 11.0935 4.125H11.2502C13.1972 4.125 14.7812 5.709 14.7812 7.65604C14.7812 9.10938 14.2153 10.4757 13.1876 11.5034C12.2202 12.4708 11.6875 13.757 11.6875 15.125C11.6875 15.5047 11.3797 15.8125 11 15.8125Z" fill="white"/>
<path d="M11.0012 18.5625C10.6215 18.5625 10.3135 18.2547 10.3135 17.875C10.3135 17.4953 10.621 17.1875 11.0008 17.1875H11.0012C11.3809 17.1875 11.6887 17.4953 11.6887 17.875C11.6887 18.2547 11.3809 18.5625 11.0012 18.5625Z" fill="white"/>
</svg>
